HIERARCHY
ROOT Hips
{
	OFFSET 0.000000 0.000000 0.000000
	CHANNELS 6 Xposition Yposition Zposition Zrotation Yrotation Xrotation 
	JOINT LowerBack
	{
		OFFSET 0.000000 0.000000 0.000000
		CHANNELS 3 Zrotation Yrotation Xrotation
		JOINT Spine
		{
			OFFSET 0.028270 2.035590 -0.193380
			CHANNELS 3 Zrotation Yrotation Xrotation
			JOINT Spine1
			{
				OFFSET 0.056720 2.048850 -0.042750
				CHANNELS 3 Zrotation Yrotation Xrotation
				JOINT Neck
				{
					OFFSET 0.000000 0.000000 0.000000
					CHANNELS 3 Zrotation Yrotation Xrotation
					JOINT Neck1
					{
						OFFSET -0.054170 1.746240 0.172020
						CHANNELS 3 Zrotation Yrotation Xrotation
						JOINT Head
						{
							OFFSET 0.104070 1.761360 -0.123970
							CHANNELS 3 Zrotation Yrotation Xrotation
							End Site
							{
								OFFSET 0.000000 0.000000 0.000000
							}
						}
					}
				}
				JOINT LeftShoulder
				{
					OFFSET 0.000000 0.000000 0.000000
					CHANNELS 3 Zrotation Yrotation Xrotation
					JOINT LeftArm
					{
						OFFSET 3.362410 1.200890 -0.311210
						CHANNELS 3 Zrotation Yrotation Xrotation
						JOINT LeftForeArm
						{
							OFFSET 4.983000 -0.000000 -0.000000
							CHANNELS 3 Zrotation Yrotation Xrotation
							JOINT LeftHand
							{
								OFFSET 3.483560 -0.000000 -0.000000
								CHANNELS 3 Zrotation Yrotation Xrotation
								JOINT LeftFingerBase
								{
									OFFSET 0.000000 0.000000 0.000000
									CHANNELS 3 Zrotation Yrotation Xrotation
									JOINT LeftHandIndex1
									{
										OFFSET 0.715260 -0.000000 -0.000000
										CHANNELS 3 Zrotation Yrotation Xrotation
										End Site
										{
											OFFSET 0.000000 0.000000 0.000000
										}
									}
								}
								JOINT LThumb
								{
									OFFSET 0.000000 0.000000 0.000000
									CHANNELS 3 Zrotation Yrotation Xrotation
									End Site
									{
										OFFSET 0.000000 0.000000 0.000000
									}
								}
							}
						}
					}
				}
				JOINT RightShoulder
				{
					OFFSET 0.000000 0.000000 0.000000
					CHANNELS 3 Zrotation Yrotation Xrotation
					JOINT RightArm
					{
						OFFSET -3.136600 1.374050 -0.404650
						CHANNELS 3 Zrotation Yrotation Xrotation
						JOINT RightForeArm
						{
							OFFSET -5.241900 -0.000000 -0.000000
							CHANNELS 3 Zrotation Yrotation Xrotation
							JOINT RightHand
							{
								OFFSET -3.444170 -0.000000 -0.000000
								CHANNELS 3 Zrotation Yrotation Xrotation
								JOINT RightFingerBase
								{
									OFFSET 0.000000 0.000000 0.000000
									CHANNELS 3 Zrotation Yrotation Xrotation
									JOINT RightHandIndex1
									{
										OFFSET -0.622530 -0.000000 -0.000000
										CHANNELS 3 Zrotation Yrotation Xrotation
										End Site
										{
											OFFSET 0.000000 0.000000 0.000000
										}
									}
								}
								JOINT RThumb
								{
									OFFSET 0.000000 0.000000 0.000000
									CHANNELS 3 Zrotation Yrotation Xrotation
									End Site
									{
										OFFSET 0.000000 0.000000 0.000000
									}
								}
							}
						}
					}
				}
			}
		}
	}
}
}
MOTION
Frames: 18
Frame Time: 0.008333
7.905357 15.125382 3.250225 43.159589 -85.893623 3.734537 7.059794 -4.949264 2.327861 0.823989 -5.231047 -2.339507 -6.482529 -5.389385 0.124216 11.388169 -12.947284 -11.220351 -2.968882 -0.147031 -1.623427 0.000000 0.000000 0.000000 11.954268 0.847787 2.175541 -56.711272 -17.211924 6.788679 -0.072962 -86.060819 -0.001850 -0.923488 11.574518 -0.087006 -0.037469 0.272476 -0.000000 0.000000 0.000000 0.000000 0.000000 0.000000 0.000000 16.519846 -10.813198 4.211785 65.845691 -6.929306 -6.409713 1.872630 40.196894 0.006622 1.039545 2.551463 0.023880 0.056108 -0.174615 0.000000 0.000000 0.000000 0.000000 0.000000 0.000000 0.000000 
7.761719 15.146775 3.208349 44.176236 -86.096006 2.830775 7.206764 -4.870155 2.374293 0.867160 -5.145543 -2.352199 -6.424816 -5.304384 0.018100 11.261749 -12.452509 -11.114714 -2.987415 -0.149649 -1.599747 0.000000 0.000000 0.000000 11.840472 0.810932 2.255140 -57.567198 -16.287899 7.154107 -0.116799 -85.188911 -0.000947 -1.037573 11.484187 -0.097712 -0.035560 0.269251 0.000000 0.000000 0.000000 0.000000 0.000000 0.000000 0.000000 16.421159 -10.194285 4.206854 65.818946 -6.217081 -6.008503 1.858901 40.504310 0.006345 0.959185 2.434913 0.021084 0.056235 -0.178768 0.000000 0.000000 0.000000 0.000000 0.000000 0.000000 0.000000 
7.619139 15.170710 3.165658 45.266254 -86.293044 1.863887 7.323281 -4.789448 2.411589 0.903737 -5.058745 -2.364293 -6.364289 -5.217502 -0.076976 11.150101 -11.991739 -10.999909 -2.998079 -0.151723 -1.572084 0.000000 0.000000 0.000000 11.764871 0.769476 2.327627 -58.401203 -15.392526 7.456518 -0.164237 -84.249445 -0.000102 -1.147481 11.440728 -0.108322 -0.033480 0.265093 0.000000 0.000000 0.000000 0.000000 0.000000 0.000000 0.000000 16.315827 -9.615226 4.189795 65.779606 -5.477516 -5.512764 1.845345 40.941803 0.006168 0.916511 2.309847 0.019189 0.056251 -0.182936 0.000000 0.000000 0.000000 0.000000 0.000000 0.000000 0.000000 
7.477653 15.196678 3.121901 46.568943 -86.459025 0.698838 7.397985 -4.713568 2.432856 0.931311 -4.977172 -2.377268 -6.302585 -5.135306 -0.159937 11.058542 -11.567129 -10.878177 -3.001672 -0.153298 -1.541017 0.000000 0.000000 0.000000 11.728535 0.724201 2.394124 -59.199635 -14.533579 7.700324 -0.213662 -83.265172 0.000619 -1.248461 11.444832 -0.118533 -0.031486 0.260099 0.000000 0.000000 0.000000 0.000000 0.000000 0.000000 0.000000 16.211281 -9.081308 4.159263 65.729378 -4.725905 -4.936785 1.829966 41.533277 0.006095 0.907764 2.189972 0.018194 0.056095 -0.187212 0.000000 0.000000 0.000000 0.000000 0.000000 0.000000 0.000000 
7.337532 15.224379 3.077461 48.055512 -86.584231 -0.636886 7.435838 -4.642684 2.436929 0.950878 -4.901262 -2.391294 -6.240483 -5.058263 -0.230047 10.986351 -11.193872 -10.754777 -2.997395 -0.154250 -1.508157 0.000000 0.000000 0.000000 11.721461 0.675214 2.455108 -59.949621 -13.720509 7.891829 -0.263393 -82.261726 0.001151 -1.335117 11.501994 -0.127847 -0.029786 0.254263 0.000000 0.000000 0.000000 0.000000 0.000000 0.000000 0.000000 16.102802 -8.607698 4.116031 65.667788 -3.962573 -4.283478 1.811318 42.293478 0.006089 0.912193 2.088141 0.017501 0.055919 -0.191744 0.000000 0.000000 0.000000 0.000000 0.000000 0.000000 0.000000 
7.198777 15.253358 3.032612 49.734312 -86.659654 -2.146644 7.438144 -4.577922 2.421578 0.962708 -4.832311 -2.407016 -6.178583 -4.987730 -0.287815 10.932987 -10.878212 -10.633703 -2.985243 -0.154532 -1.474891 0.000000 0.000000 0.000000 11.734698 0.624694 2.511699 -60.637251 -12.958052 8.039424 -0.311766 -81.268967 0.001422 -1.399489 11.610756 -0.135761 -0.028627 0.247726 0.000000 0.000000 0.000000 0.000000 0.000000 0.000000 0.000000 15.988065 -8.200239 4.060825 65.594046 -3.193812 -3.559969 1.787381 43.234619 0.006095 0.906949 2.016183 0.016909 0.055872 -0.196703 0.000000 0.000000 0.000000 0.000000 0.000000 0.000000 0.000000 
7.061695 15.283315 2.987701 51.582189 -86.681924 -3.805563 7.407559 -4.519170 2.386541 0.967363 -4.770287 -2.424953 -6.116976 -4.923738 -0.335037 10.895981 -10.621618 -10.517926 -2.965352 -0.154122 -1.442344 0.000000 0.000000 0.000000 11.758564 0.574820 2.565027 -61.250199 -12.247949 8.152417 -0.357248 -80.318122 0.001372 -1.433476 11.763956 -0.141175 -0.028215 0.240727 0.000000 0.000000 0.000000 0.000000 0.000000 0.000000 0.000000 15.862082 -7.858687 3.994903 65.508166 -2.426820 -2.776149 1.756249 44.364834 0.006043 0.868014 1.984403 0.016018 0.056135 -0.202282 0.000000 0.000000 0.000000 0.000000 0.000000 0.000000 0.000000 
6.926599 15.314047 2.942994 53.589021 -86.650402 -5.602723 7.344980 -4.466368 2.334032 0.964981 -4.714975 -2.445186 -6.055505 -4.866113 -0.374328 10.872810 -10.420627 -10.409233 -2.938215 -0.153034 -1.411375 0.000000 0.000000 0.000000 11.785799 0.527587 2.616165 -61.778311 -11.588995 8.240593 -0.398520 -79.439462 0.000978 -1.430609 11.948515 -0.143187 -0.028686 0.233589 0.000000 0.000000 0.000000 0.000000 0.000000 0.000000 0.000000 15.720968 -7.577560 3.919660 65.410014 -1.668814 -1.943394 1.716239 45.685960 0.005861 0.773165 2.002801 0.014330 0.056883 -0.208686 0.000000 0.000000 0.000000 0.000000 0.000000 0.000000 0.000000 
6.793595 15.345188 2.899053 55.630360 -86.578007 -7.409356 7.262441 -4.415619 2.265034 0.958199 -4.662723 -2.468097 -5.993754 -4.811274 -0.408257 10.856714 -10.271945 -10.309010 -2.903946 -0.151263 -1.382687 0.000000 0.000000 0.000000 11.802977 0.487167 2.666366 -62.213119 -10.978755 8.313991 -0.434525 -78.660402 0.000224 -1.389716 12.154069 -0.141397 -0.030066 0.226546 0.000000 0.000000 0.000000 0.000000 0.000000 0.000000 0.000000 15.554665 -7.349681 3.836939 65.298495 -0.925074 -1.075076 1.666368 47.197120 0.005465 0.602622 2.071322 0.011444 0.058337 -0.216068 0.000000 0.000000 0.000000 0.000000 0.000000 0.000000 0.000000 
6.663094 15.376670 2.856070 57.681675 -86.471989 -9.202873 7.162561 -4.365819 2.184297 0.947531 -4.612117 -2.493293 -5.931425 -4.757829 -0.439974 10.844085 -10.164557 -10.216464 -2.863440 -0.148887 -1.356359 0.000000 0.000000 0.000000 11.805964 0.455373 2.716688 -62.550683 -10.412214 8.380680 -0.464584 -78.002081 -0.000826 -1.313530 12.366097 -0.135705 -0.032291 0.219875 0.000000 0.000000 0.000000 0.000000 0.000000 0.000000 0.000000 15.359408 -7.161402 3.748088 65.173679 -0.202375 -0.188265 1.606003 48.890397 0.004787 0.345119 2.193414 0.006560 0.060626 -0.224580 0.000000 0.000000 0.000000 0.000000 0.000000 0.000000 0.000000 
6.535271 15.408306 2.814274 59.699193 -86.343978 -10.938988 7.051437 -4.314661 2.095928 0.934286 -4.560674 -2.520355 -5.868245 -4.703319 -0.471975 10.830448 -10.087586 -10.129961 -2.817575 -0.145994 -1.332185 0.000000 0.000000 0.000000 11.790431 0.434377 2.767809 -62.790183 -9.884901 8.446594 -0.488316 -77.479780 -0.002092 -1.210189 12.565511 -0.126611 -0.035189 0.213891 0.000000 0.000000 0.000000 0.000000 0.000000 0.000000 0.000000 15.131060 -6.999338 3.654480 65.034515 0.496342 0.699073 1.535507 50.751064 0.003788 -0.001362 2.370365 -0.000922 0.063830 -0.234338 0.000000 0.000000 0.000000 0.000000 0.000000 0.000000 0.000000 
6.410300 15.439978 2.773905 61.628467 -86.207729 -12.563069 6.937742 -4.259479 2.001897 0.920404 -4.505758 -2.549391 -5.804198 -4.645161 -0.506445 10.810749 -10.027299 -10.046464 -2.767394 -0.142714 -1.309406 0.000000 0.000000 0.000000 11.752952 0.425590 2.820575 -62.934424 -9.392034 8.515440 -0.505727 -77.100690 -0.003463 -1.093072 12.740964 -0.115213 -0.038526 0.208743 0.000000 0.000000 0.000000 0.000000 0.000000 0.000000 0.000000 14.865197 -6.847286 3.557102 64.881307 1.164671 1.563568 1.455620 52.764496 0.002430 -0.431008 2.597630 -0.011802 0.067959 -0.245386 0.000000 0.000000 0.000000 0.000000 0.000000 0.000000 0.000000 
6.288498 15.471738 2.734860 63.499592 -86.070763 -14.111754 6.820648 -4.199840 1.910743 0.905619 -4.446297 -2.578284 -5.738995 -4.582206 -0.543720 10.784015 -9.977209 -9.964214 -2.713430 -0.139100 -1.287724 0.000000 0.000000 0.000000 11.697754 0.430214 2.874551 -62.990779 -8.932958 8.586662 -0.517058 -76.862487 -0.004799 -0.978467 12.878321 -0.103513 -0.041972 0.204599 0.000000 0.000000 0.000000 0.000000 0.000000 0.000000 0.000000 14.562525 -6.698624 3.456844 64.713903 1.814684 2.393803 1.368321 54.897961 0.000721 -0.931553 2.881247 -0.026879 0.072974 -0.257789 0.000000 0.000000 0.000000 0.000000 0.000000 0.000000 0.000000 
6.169879 15.503503 2.697134 65.300176 -85.941881 -15.573948 6.704904 -4.134487 1.824023 0.890993 -4.381009 -2.606825 -5.672842 -4.513204 -0.584281 10.747190 -9.924359 -9.879143 -2.656832 -0.135309 -1.265946 0.000000 0.000000 0.000000 11.625946 0.449126 2.930086 -62.967931 -8.506274 8.658350 -0.522887 -76.756922 -0.005966 -0.884590 12.971905 -0.093410 -0.045229 0.201481 0.000000 0.000000 0.000000 0.000000 0.000000 0.000000 0.000000 14.222682 -6.539874 3.353936 64.534492 2.443577 3.165160 1.275147 57.129570 -0.001306 -1.482460 3.215355 -0.046853 0.078707 -0.271511 0.000000 0.000000 0.000000 0.000000 0.000000 0.000000 0.000000 
6.054451 15.535211 2.660686 67.032725 -85.827122 -16.954495 6.592430 -4.062740 1.743073 0.877015 -4.309122 -2.634484 -5.605696 -4.437387 -0.627232 10.698527 -9.861895 -9.788088 -2.598167 -0.131435 -1.243071 0.000000 0.000000 0.000000 11.541304 0.482149 2.986679 -62.878023 -8.112044 8.725737 -0.523889 -76.769341 -0.006841 -0.828255 13.020259 -0.087105 -0.047996 0.199334 0.000000 0.000000 0.000000 0.000000 0.000000 0.000000 0.000000 13.846036 -6.364934 3.248540 64.345563 3.057683 3.861560 1.178224 59.428526 -0.003605 -2.061806 3.598208 -0.072125 0.084981 -0.286501 0.000000 0.000000 0.000000 0.000000 0.000000 0.000000 0.000000 
5.942253 15.566923 2.625341 68.723949 -85.727171 -18.285351 6.481100 -3.985264 1.669877 0.863231 -4.231071 -2.660479 -5.537481 -4.355188 -0.671266 10.637556 -9.784156 -9.688327 -2.537978 -0.127569 -1.218193 0.000000 0.000000 0.000000 11.449732 0.528773 3.043708 -62.734074 -7.752419 8.783196 -0.520850 -76.880572 -0.007327 -0.822838 13.025284 -0.086398 -0.050032 0.198061 0.000000 0.000000 0.000000 0.000000 0.000000 0.000000 0.000000 13.434947 -6.169728 3.140590 64.150974 3.662828 4.467909 1.079440 61.764516 -0.006103 -2.645930 4.025307 -0.102795 0.091547 -0.302660 0.000000 0.000000 0.000000 0.000000 0.000000 0.000000 0.000000 
5.832982 15.598477 2.590937 70.400527 -85.640374 -19.593871 6.367434 -3.903146 1.605470 0.848920 -4.147726 -2.683980 -5.467934 -4.267474 -0.714285 10.564246 -9.689425 -9.577900 -2.476440 -0.123758 -1.190649 0.000000 0.000000 0.000000 11.355903 0.588946 3.100241 -62.548867 -7.429697 8.823736 -0.514502 -77.070131 -0.007369 -0.876378 12.993222 -0.091991 -0.051174 0.197506 0.000000 0.000000 0.000000 0.000000 0.000000 0.000000 0.000000 12.992242 -5.955012 3.029911 63.954521 4.267822 4.975113 0.980634 64.104673 -0.008718 -3.213582 4.492082 -0.138465 0.098160 -0.319858 0.000000 0.000000 0.000000 0.000000 0.000000 0.000000 0.000000 
5.726453 15.629748 2.557589 72.015949 -85.569604 -20.832276 6.256941 -3.815031 1.542603 0.835524 -4.058242 -2.706837 -5.397120 -4.173531 -0.755722 10.475989 -9.571257 -9.453782 -2.414098 -0.120118 -1.159202 0.000000 0.000000 0.000000 11.262397 0.659217 3.155842 -62.337240 -7.143738 8.842890 -0.505631 -77.316374 -0.006969 -0.990442 12.936930 -0.104282 -0.051389 0.197426 0.000000 0.000000 0.000000 0.000000 0.000000 0.000000 0.000000 12.517272 -5.714824 2.916313 63.759731 4.863609 5.367199 0.882646 66.433149 -0.011399 -3.749564 4.980856 -0.178336 0.104612 -0.337874 0.000000 0.000000 0.000000 0.000000 0.000000 0.000000 0.000000 
